<svg width="24" height="24" viewBox="0 0 24 24" fill="none" xmlns="http://www.w3.org/2000/svg">
<path fill-rule="evenodd" clip-rule="evenodd" d="M12 1.67442C6.29734 1.67442 1.67442 6.29734 1.67442 12C1.67442 13.6533 2.06235 15.2135 2.7514 16.5969C3.02795 17.1522 3.13445 17.8161 2.95996 18.4682L2.2951 20.9531C2.17299 21.4095 2.59051 21.827 3.04688 21.7049L5.53175 21.04C6.18388 20.8656 6.84782 20.972 7.40306 21.2486C8.78646 21.9376 10.3467 22.3256 12 22.3256C17.7027 22.3256 22.3256 17.7027 22.3256 12C22.3256 6.29734 17.7027 1.67442 12 1.67442ZM0 12C0 5.37258 5.37258 0 12 0C18.6274 0 24 5.37258 24 12C24 18.6274 18.6274 24 12 24C10.0819 24 8.26663 23.5494 6.65654 22.7474C6.41627 22.6277 6.17094 22.6023 5.96455 22.6576L3.47967 23.3224C1.77864 23.7776 0.222445 22.2214 0.677577 20.5203L1.34244 18.0355C1.39767 17.8291 1.37228 17.5837 1.25261 17.3435C0.450649 15.7334 0 13.9181 0 12ZM6.69767 10.3256C6.69767 9.8632 7.07251 9.48837 7.53488 9.48837H16.4651C16.9275 9.48837 17.3023 9.8632 17.3023 10.3256C17.3023 10.788 16.9275 11.1628 16.4651 11.1628H7.53488C7.07251 11.1628 6.69767 10.788 6.69767 10.3256ZM6.69767 14.2326C6.69767 13.7702 7.07251 13.3953 7.53488 13.3953H13.6744C14.1368 13.3953 14.5116 13.7702 14.5116 14.2326C14.5116 14.6949 14.1368 15.0698 13.6744 15.0698H7.53488C7.07251 15.0698 6.69767 14.6949 6.69767 14.2326Z" fill="#9D9D9D"/>
</svg>
