<svg width="15" height="14" viewBox="0 0 15 14" fill="none" xmlns="http://www.w3.org/2000/svg">
<path fill-rule="evenodd" clip-rule="evenodd" d="M2.82309 1.362C3.63465 0.555055 4.97089 0.698692 5.65044 1.60642L6.4911 2.72935C7.04402 3.46794 6.99523 4.50021 6.33889 5.15282L6.17971 5.3111C6.17276 5.33129 6.1559 5.39477 6.17462 5.5154C6.21676 5.78707 6.44361 6.36334 7.39596 7.31028C8.34797 8.25688 8.92833 8.48351 9.20384 8.52577C9.3287 8.54492 9.39401 8.52707 9.41423 8.52002L9.68623 8.24956C10.2697 7.6694 11.1663 7.56095 11.8887 7.95366L13.1624 8.64604C14.253 9.23893 14.5285 10.7214 13.635 11.6099L12.688 12.5515C12.3896 12.8482 11.9883 13.0956 11.4986 13.1413C10.2926 13.2537 7.48043 13.1102 4.5257 10.1723C1.76709 7.42933 1.23771 5.03734 1.17073 3.85878L1.66993 3.83041L1.17073 3.85878C1.13687 3.26284 1.41848 2.75864 1.77669 2.40246L2.82309 1.362ZM4.84991 2.20571C4.51216 1.75455 3.88264 1.71868 3.52818 2.07112L2.48178 3.11158C2.26183 3.33028 2.15601 3.5713 2.16912 3.80204C2.22234 4.73844 2.64987 6.8969 5.23079 9.46316C7.93843 12.1554 10.4392 12.2357 11.4058 12.1456C11.6033 12.1272 11.7997 12.0246 11.9829 11.8424L12.9299 10.9008C13.3149 10.518 13.23 9.821 12.6848 9.52462L11.4111 8.83224C11.0594 8.64105 10.6473 8.70412 10.3913 8.95868L10.0877 9.26058L9.73515 8.90603C10.0877 9.26058 10.0872 9.26106 10.0867 9.26153L10.0858 9.2625L10.0837 9.26448L10.0794 9.26865L10.0696 9.27774C10.0626 9.28413 10.0546 9.29114 10.0455 9.29864C10.0274 9.31363 10.0052 9.33062 9.97855 9.34845C9.92518 9.3842 9.8547 9.42311 9.76613 9.4561C9.58555 9.52336 9.34744 9.55949 9.05223 9.51421C8.47437 9.42557 7.70887 9.03161 6.69087 8.01939C5.67322 7.00752 5.27593 6.24556 5.18644 5.66871C5.14068 5.37374 5.17717 5.13554 5.24526 4.95483C5.27863 4.86627 5.31795 4.79586 5.35404 4.7426C5.37203 4.71603 5.38916 4.69383 5.40428 4.67579C5.41184 4.66677 5.4189 4.65878 5.42533 4.6518L5.43448 4.64208L5.43867 4.63777L5.44067 4.63576L5.44164 4.63478C5.44212 4.6343 5.44259 4.63383 5.79514 4.98839L5.44259 4.63383L5.6338 4.44371C5.91954 4.15959 5.95956 3.68796 5.69057 3.32865L4.84991 2.20571Z" fill="#9D9D9D" stroke="#9D9D9D" stroke-width="0.5" stroke-linecap="round"/>
</svg>
