<svg width="24" height="20" viewBox="0 0 24 20" fill="none" xmlns="http://www.w3.org/2000/svg">
<path fill-rule="evenodd" clip-rule="evenodd" d="M18.9767 4.41847C18.9767 6.73036 17.1026 8.60451 14.7907 8.60451C12.4788 8.60451 10.6047 6.73036 10.6047 4.41847C10.6047 2.10658 12.4788 0.232422 14.7907 0.232422C17.1026 0.232422 18.9767 2.10658 18.9767 4.41847ZM14.7907 6.9301C16.1778 6.9301 17.3023 5.8056 17.3023 4.41847C17.3023 3.03133 16.1778 1.90684 14.7907 1.90684C13.4036 1.90684 12.2791 3.03133 12.2791 4.41847C12.2791 5.8056 13.4036 6.9301 14.7907 6.9301Z" fill="#555555"/>
<path fill-rule="evenodd" clip-rule="evenodd" d="M5.02326 15.5813C5.02326 17.8931 6.89741 19.7673 9.2093 19.7673C11.5212 19.7673 13.3954 17.8931 13.3954 15.5813C13.3954 13.2694 11.5212 11.3952 9.2093 11.3952C6.89741 11.3952 5.02326 13.2694 5.02326 15.5813ZM9.2093 18.0929C7.82217 18.0929 6.69768 16.9684 6.69768 15.5813C6.69768 14.1941 7.82217 13.0696 9.2093 13.0696C10.5964 13.0696 11.7209 14.1941 11.7209 15.5813C11.7209 16.9684 10.5964 18.0929 9.2093 18.0929Z" fill="#555555"/>
<path d="M14.5116 15.535C14.5116 15.0726 14.8865 14.6977 15.3488 14.6977H23.1628C23.6252 14.6977 24 15.0726 24 15.535C24 15.9973 23.6252 16.3722 23.1628 16.3722H15.3488C14.8865 16.3722 14.5116 15.9973 14.5116 15.535Z" fill="#555555"/>
<path d="M8.65116 3.53496C9.11354 3.53496 9.48837 3.90979 9.48837 4.37217C9.48837 4.83454 9.11354 5.20937 8.65116 5.20937L0.837209 5.20937C0.374831 5.20937 0 4.83454 0 4.37217C0 3.90979 0.374831 3.53496 0.837209 3.53496L8.65116 3.53496Z" fill="#555555"/>
<path d="M0 15.535C0 15.0726 0.374832 14.6977 0.83721 14.6977H3.06977C3.53215 14.6977 3.90698 15.0726 3.90698 15.535C3.90698 15.9973 3.53215 16.3722 3.06977 16.3722H0.83721C0.374832 16.3722 0 15.9973 0 15.535Z" fill="#555555"/>
<path d="M23.1628 3.53496C23.6252 3.53496 24 3.90979 24 4.37217C24 4.83454 23.6252 5.20937 23.1628 5.20937H20.9302C20.4679 5.20937 20.093 4.83454 20.093 4.37217C20.093 3.90979 20.4679 3.53496 20.9302 3.53496H23.1628Z" fill="#555555"/>
</svg>
