<svg width="36" height="36" viewBox="0 0 36 36" fill="none" xmlns="http://www.w3.org/2000/svg">
<path d="M14.6512 23.8605C14.1888 23.8605 13.814 24.2353 13.814 24.6977C13.814 25.1601 14.1888 25.5349 14.6512 25.5349H21.3488C21.8112 25.5349 22.186 25.1601 22.186 24.6977C22.186 24.2353 21.8112 23.8605 21.3488 23.8605H14.6512Z" fill="#9D9D9D"/>
<path fill-rule="evenodd" clip-rule="evenodd" d="M18 6C17.2095 6 16.4914 6.2264 15.7122 6.60529C14.9591 6.97155 14.089 7.51154 13.0023 8.18603L10.6954 9.61775C9.66707 10.2559 8.84366 10.767 8.209 11.253C7.55179 11.7563 7.04701 12.2689 6.68239 12.935C6.31854 13.5998 6.15468 14.3071 6.07612 15.1431C5.99998 15.9534 5.99999 16.9441 6 18.1867V19.9868C5.99998 22.1121 5.99997 23.7897 6.17046 25.1013C6.34535 26.4468 6.71281 27.5331 7.5431 28.3919C8.37721 29.2547 9.43865 29.6402 10.7527 29.8229C12.0262 30 13.6527 30 15.7025 30H20.2974C22.3472 30 23.9738 30 25.2473 29.8229C26.5613 29.6402 27.6228 29.2547 28.4569 28.3919C29.2872 27.5331 29.6547 26.4468 29.8295 25.1013C30 23.7897 30 22.1121 30 19.9868V18.1867C30 16.9442 30 15.9533 29.9239 15.1431C29.8453 14.3071 29.6815 13.5998 29.3176 12.935C28.953 12.2689 28.4482 11.7563 27.791 11.253C27.1563 10.767 26.333 10.2559 25.3046 9.61776L22.9977 8.18603C21.911 7.51154 21.0409 6.97155 20.2878 6.60529C19.5086 6.2264 18.7905 6 18 6ZM13.8469 9.6325C14.9808 8.92879 15.778 8.4352 16.4445 8.1111C17.0938 7.79534 17.5537 7.67442 18 7.67442C18.4463 7.67442 18.9062 7.79534 19.5555 8.1111C20.222 8.4352 21.0192 8.92879 22.1531 9.6325L24.3856 11.0181C25.4582 11.6838 26.2112 12.1522 26.7729 12.5824C27.3195 13.0009 27.6339 13.3463 27.8488 13.739C28.0645 14.1331 28.1905 14.5938 28.2568 15.2998C28.3247 16.0226 28.3256 16.9349 28.3256 18.2276V19.9255C28.3256 22.1257 28.3239 23.6943 28.1691 24.8855C28.017 26.0554 27.7306 26.7342 27.2531 27.2281C26.7794 27.7181 26.1345 28.009 25.0167 28.1645C23.8718 28.3237 22.3619 28.3256 20.2326 28.3256H15.7674C13.6381 28.3256 12.1282 28.3237 10.9833 28.1645C9.86552 28.009 9.22062 27.7181 8.74693 27.2281C8.26941 26.7342 7.98298 26.0554 7.83091 24.8855C7.67608 23.6943 7.67442 22.1257 7.67442 19.9255V18.2276C7.67442 16.9349 7.67527 16.0226 7.74319 15.2998C7.80953 14.5938 7.93546 14.1331 8.15117 13.739C8.36613 13.3463 8.68055 13.0009 9.22707 12.5824C9.78876 12.1522 10.5418 11.6838 11.6144 11.0181L13.8469 9.6325Z" fill="#9D9D9D"/>
</svg>
