<svg width="20" height="20" viewBox="0 0 20 20" fill="none" xmlns="http://www.w3.org/2000/svg">
<path d="M17.142 1.42857C17.142 3.37054 16.7458 5.08743 15.9534 6.57924C15.161 8.07106 14.1695 9.21131 12.9791 10C14.1695 10.7887 15.161 11.9289 15.9534 13.4208C16.7458 14.9126 17.142 16.6295 17.142 18.5714H18.2134C18.3176 18.5714 18.4032 18.6049 18.4701 18.6719C18.5371 18.7388 18.5706 18.8244 18.5706 18.9286V19.6429C18.5706 19.747 18.5371 19.8326 18.4701 19.8996C18.4032 19.9665 18.3176 20 18.2134 20H1.78488C1.68071 20 1.59515 19.9665 1.52818 19.8996C1.46122 19.8326 1.42773 19.747 1.42773 19.6429V18.9286C1.42773 18.8244 1.46122 18.7388 1.52818 18.6719C1.59515 18.6049 1.68071 18.5714 1.78488 18.5714H2.85631C2.85631 16.6295 3.25251 14.9126 4.04492 13.4208C4.83733 11.9289 5.82878 10.7887 7.01925 10C5.82878 9.21131 4.83733 8.07106 4.04492 6.57924C3.25251 5.08743 2.85631 3.37054 2.85631 1.42857H1.78488C1.68071 1.42857 1.59515 1.39509 1.52818 1.32812C1.46122 1.26116 1.42773 1.1756 1.42773 1.07143V0.357143C1.42773 0.252976 1.46122 0.167411 1.52818 0.100446C1.59515 0.0334821 1.68071 0 1.78488 0H18.2134C18.3176 0 18.4032 0.0334821 18.4701 0.100446C18.5371 0.167411 18.5706 0.252976 18.5706 0.357143V1.07143C18.5706 1.1756 18.5371 1.26116 18.4701 1.32812C18.4032 1.39509 18.3176 1.42857 18.2134 1.42857H17.142ZM11.1822 9.33036C11.7551 9.11458 12.3094 8.77046 12.8451 8.29799C13.3809 7.82552 13.8626 7.25818 14.2905 6.59598C14.7183 5.93378 15.0624 5.15253 15.3228 4.25223C15.5832 3.35193 15.7134 2.41071 15.7134 1.42857H4.28488C4.28488 2.41071 4.41509 3.35193 4.6755 4.25223C4.93592 5.15253 5.28004 5.93378 5.70787 6.59598C6.1357 7.25818 6.61747 7.82552 7.15318 8.29799C7.68889 8.77046 8.24321 9.11458 8.81613 9.33036C8.9575 9.38244 9.07096 9.46987 9.15653 9.59263C9.24209 9.7154 9.28488 9.85119 9.28488 10C9.28488 10.1488 9.24209 10.2846 9.15653 10.4074C9.07096 10.5301 8.9575 10.6176 8.81613 10.6696C8.24321 10.8854 7.68889 11.2295 7.15318 11.702C6.61747 12.1745 6.1357 12.7418 5.70787 13.404C5.28004 14.0662 4.93592 14.8475 4.6755 15.7478C4.41509 16.6481 4.28488 17.5893 4.28488 18.5714H15.7134C15.7134 17.5893 15.5832 16.6481 15.3228 15.7478C15.0624 14.8475 14.7183 14.0662 14.2905 13.404C13.8626 12.7418 13.3809 12.1745 12.8451 11.702C12.3094 11.2295 11.7551 10.8854 11.1822 10.6696C11.0408 10.6176 10.9274 10.5301 10.8418 10.4074C10.7562 10.2846 10.7134 10.1488 10.7134 10C10.7134 9.85119 10.7562 9.7154 10.8418 9.59263C10.9274 9.46987 11.0408 9.38244 11.1822 9.33036Z" fill="#9D9D9D"/>
</svg>
