<svg width="24" height="24" viewBox="0 0 24 24" fill="none" xmlns="http://www.w3.org/2000/svg">
<path fill-rule="evenodd" clip-rule="evenodd" d="M9.07317 0C6.00193 0 3.5122 2.48973 3.5122 5.56098C3.5122 8.63222 6.00193 11.122 9.07317 11.122C12.1444 11.122 14.6341 8.63222 14.6341 5.56098C14.6341 2.48973 12.1444 0 9.07317 0ZM5.26829 5.56098C5.26829 3.4596 6.97179 1.7561 9.07317 1.7561C11.1745 1.7561 12.878 3.4596 12.878 5.56098C12.878 7.66235 11.1745 9.36585 9.07317 9.36585C6.97179 9.36585 5.26829 7.66235 5.26829 5.56098Z" fill="#9D9D9D"/>
<path d="M16.0976 1.17073C15.6126 1.17073 15.2195 1.56385 15.2195 2.04878C15.2195 2.53371 15.6126 2.92683 16.0976 2.92683C17.5524 2.92683 18.7317 4.10618 18.7317 5.56098C18.7317 7.01577 17.5524 8.19512 16.0976 8.19512C15.6126 8.19512 15.2195 8.58824 15.2195 9.07317C15.2195 9.5581 15.6126 9.95122 16.0976 9.95122C18.5222 9.95122 20.4878 7.98564 20.4878 5.56098C20.4878 3.13631 18.5222 1.17073 16.0976 1.17073Z" fill="#9D9D9D"/>
<path fill-rule="evenodd" clip-rule="evenodd" d="M2.84271 14.3653C4.481 13.4292 6.68566 12.878 9.07317 12.878C11.4607 12.878 13.6653 13.4292 15.3036 14.3653C16.9171 15.2873 18.1463 16.6948 18.1463 18.439C18.1463 20.1833 16.9171 21.5907 15.3036 22.5127C13.6653 23.4489 11.4607 24 9.07317 24C6.68566 24 4.481 23.4489 2.84271 22.5127C1.22926 21.5907 0 20.1833 0 18.439C0 16.6948 1.22926 15.2873 2.84271 14.3653ZM3.71398 15.8901C2.36137 16.663 1.7561 17.5969 1.7561 18.439C1.7561 19.2811 2.36137 20.2151 3.71398 20.988C5.04174 21.7467 6.93464 22.2439 9.07317 22.2439C11.2117 22.2439 13.1046 21.7467 14.4324 20.988C15.785 20.2151 16.3902 19.2811 16.3902 18.439C16.3902 17.5969 15.785 16.663 14.4324 15.8901C13.1046 15.1313 11.2117 14.6341 9.07317 14.6341C6.93464 14.6341 5.04174 15.1313 3.71398 15.8901Z" fill="#9D9D9D"/>
<path d="M19.7978 14.0692C19.3242 13.9653 18.856 14.2651 18.7521 14.7387C18.6482 15.2124 18.948 15.6806 19.4217 15.7845C20.3493 15.9879 21.0907 16.3373 21.58 16.7377C22.0699 17.1386 22.2439 17.5302 22.2439 17.8537C22.2439 18.1472 22.1027 18.4918 21.7134 18.8533C21.3214 19.2176 20.719 19.5541 19.942 19.788C19.4776 19.9278 19.2145 20.4176 19.3544 20.882C19.4942 21.3463 19.9839 21.6094 20.4483 21.4696C21.4113 21.1796 22.2723 20.7311 22.9086 20.14C23.5478 19.5462 24 18.7652 24 17.8537C24 16.8413 23.4448 15.9946 22.6921 15.3786C21.9387 14.7622 20.9239 14.3161 19.7978 14.0692Z" fill="#9D9D9D"/>
</svg>
